<?xml version="1.0" encoding="UTF-8"?>
<svg width="24px" height="15px" viewBox="0 0 24 15" version="1.1" xmlns="http://www.w3.org/2000/svg" xmlns:xlink="http://www.w3.org/1999/xlink">
    <!-- Generator: Sketch 51.3 (57544) - http://www.bohemiancoding.com/sketch -->
    <title>NavCTA</title>
    <desc>Created with Sketch.</desc>
    <defs></defs>
    <g id="V2" stroke="none" stroke-width="1" fill="none" fill-rule="evenodd">
        <g id="Mobile" transform="translate(-271.000000, -29.000000)" fill-rule="nonzero">
            <g id="NavCTA" transform="translate(283.000000, 36.000000) scale(-1, 1) translate(-283.000000, -36.000000) translate(271.000000, 24.000000)">
                <rect id="Rectangle-12" x="0" y="0" width="24" height="24"></rect>
                <path d="M0.999133073,5.04163054 L23.0008669,5.95836946 C23.5592763,5.98163651 24,6.44110614 24,7 L24,7 C24,7.52975209 23.5705511,7.95920101 23.040799,7.95920101 C23.027484,7.95920101 23.0141704,7.95892377 23.0008669,7.95836946 L0.999133073,7.04163054 C0.440723735,7.01836349 6.84447575e-17,6.55889386 0,6 L0,6 C-6.48759203e-17,5.47024791 0.429448921,5.04079899 0.959201012,5.04079899 C0.972516028,5.04079899 0.985829601,5.04107623 0.999133073,5.04163054 Z" id="Rectangle-14" fill="#222225"></path>
                <path d="M0.999133073,17.0416305 L23.0008669,17.9583695 C23.5592763,17.9816365 24,18.4411061 24,19 L24,19 C24,19.5297521 23.5705511,19.959201 23.040799,19.959201 C23.027484,19.959201 23.0141704,19.9589238 23.0008669,19.9583695 L0.999133073,19.0416305 C0.440723735,19.0183635 6.84447575e-17,18.5588939 0,18 L0,18 C-6.48759203e-17,17.4702479 0.429448921,17.040799 0.959201012,17.040799 C0.972516028,17.040799 0.985829601,17.0410762 0.999133073,17.0416305 Z" id="Rectangle-14-Copy-2" fill="#222225"></path>
            </g>
        </g>
    </g>
</svg>